<svg xmlns="http://www.w3.org/2000/svg" xmlns:xlink="http://www.w3.org/1999/xlink" width="1776.6" height="1433.9">
	<style>
		@keyframes line-move {
			100% {
				stroke-dashoffset: -108;
				14 22 14 22 14 22
			}
		}

		@keyframes blink {
			30% {
				opacity: 0;
			}

			¬ 50% {
				opacity: 1;
			}

			60% {
				opacity: 0;
			}

			70% {
				opacity: 1;
			}
		}

		.prefix__st0,
		.prefix__st1,
		.prefix__st2 {
			fill: #acd6f4;
			fill-opacity: .1
		}

		.prefix__st1 {
			fill: #003770;
		}

		.prefix__st2 {
			fill-opacity: .3006
		}

		.prefix__st2 {
			fill-opacity: .4019
		}

		.prefix__st6,
		.prefix__st7 {
			fill: #ffc43d
		}

		.prefix__st7 {
			fill-rule: evenodd;
			clip-rule: evenodd
		}

		.prefix__st13 {
			fill: #ffc480
		}

		.prefix__st28 {
			fill: #1f335d
		}

		.prefix__st31 {
			fill: #fff;
			fill-opacity: .1044
		}

		.prefix__st36 {
			fill-rule: evenodd;
			clip-rule: evenodd
		}

		.prefix__st36,
		.prefix__st37 {
			fill: #fff
		}

		#prefix__line {
			animation: line-move 1.5s ease-in-out infinite;
		}

		#prefix__server-1 {
			animation: blink 0.75s steps(1, end) infinite;
		}

		#prefix__server-2 {
			animation: blink 0.5s 0.25s steps(1, end) infinite;
		}
	</style>
	<defs>
		<linearGradient id="blue_to_red">
			<stop stop-color="#7F1A4B" />
			<stop offset="1" stop-color="#003770" />
		</linearGradient>
	</defs>
	<g id="prefix__Story">
		<g id="prefix__Layer_1_1_">
			<path id="prefix__Path_0" class="prefix__st0"
				d="M240.7 1428.2c-142.5-7.8-269.8-182.4-234.8-314.3 24.6-93.1 125.6-151.4 114.2-258-14.7-137.3-77.6-222.7-9.5-374.1 69.1-153.5 194.8-124.3 201.3-210.6 13.3-176.4 148.6-351.4 470.9-232 261.3 96.8 426.6-67.5 619.7 23.3 315.6 148.6 118 334 137.7 501.1 15.6 132.2 140.9 168.7 199.1 275.3 96.2 176.2 1.6 602.4-229.3 594.8-326-10.6-1269.3-5.5-1269.3-5.5z" />
			<g style="display:none;">
				<path id="prefix__Path" class="prefix__st1"
					d="M567.6 1288.4c49.1 102.3 511.6 101.6 743.8-72.8 152-114.2 312.6 8.4 376-115 134.9-262.5-308-377.9-372.5-450.7-67-75.6-26.4-244.4-196.1-274.2-324.8-57-369.8 130-341.6 426.2 20.4 213.9-346 202.2-209.6 486.5z" />
				<path id="prefix__Path_1_" class="prefix__st1"
					d="M631.3 195c-10.2-12.9-19.9-26.4-31-38.5-16.6-18-38.4-19.9-61.7-20.4-138.8-3-70.7 151.4-129.1 214.6-46.2 50-126.8 65.5-175.1 118.6-79.1 87-106.8 360.8 16.1 425.1 228.4 119.6 305-246.5 401.1-364.3 59.3-72.7 235.2-141.8 237.2-247.1 3.1-171.3-229.7.2-257.5-88z" />
				<path id="prefix__Path_2_" class="prefix__st1"
					d="M1235.9 189.6c-9.9-84.5 192.8-53.7 231.4-12.7 91 96.7-20.3 137.7-25.7 196.3-3.6 39.4 45 70.4 5.5 104.9-13.6 11.9-27.2 11.8-44.4 11.7-148.2-.7-66-120.4-93.5-195.5-12.4-33.8-60.1-67.9-73.3-104.7z" />
				<path id="prefix__Path_3_" class="prefix__st1"
					d="M1181.8 1086.9c-47.8 10.1-97.4.5-143.9-12.9-160.2-46-115.1-184.3-90.2-307.2 13.3-65.7-18.2-185 68.8-211.4 32.3-9.8 61 .1 90 14.6 135.9 67.9 76.5 136.3 144.1 217.3 45.1 54 169.5 68.7 162.1 156.7-7.3 86.8-160.6 145.7-230.9 142.9z" />
				<path id="prefix__Path_21_" class="prefix__st2"
					d="M502.1 988.8c-13.2 8.7-50.5-23.1-54 3.4-2.5 19.3 37.2 15.8 44.5 24.1 12.2 14-11.4 43.4 10.1 51.3 22.6 8.3 16.8-42.9 26.2-48.1 10.1-5.5 54.8 20.1 57.4-2.2 3.8-32.4-45-16.9-53.2-24.9-8.8-8.6 18-52.4-14.7-52.8-15.9-.2-5.6 42.2-16.3 49.2z" />
				<path id="prefix__Path_Copy_4_" class="prefix__st2"
					d="M606.1 291.6c-15.8-1.1-26.4-48.9-45.1-29.9-13.7 13.9 20.1 35.1 20.9 46.1 1.3 18.5-35.3 27.8-22.9 47 13.1 20.3 39.3-24.2 49.9-22.6 11.4 1.7 31.6 49.1 47.1 32.9 22.6-23.5-25.7-40.6-27.4-51.9-1.8-12.2 45.9-30.9 20.1-51-12.4-9.8-29.8 30.3-42.6 29.4z" />
				<path id="prefix__Path_22_" class="prefix__st2"
					d="M1155.6 861.3c27.9-9.3 71.4-42.4 77.2-24.2 10.9 34.3-138.1 103.9-130.6 53.3 1.1-7.8 29.8-23.3 53.4-29.1z" />
				<path id="prefix__Path_23_" class="prefix__st2"
					d="M1167.9 842.6c-6.3 11.2-26.3 13.8-34.3 6.5-8.7-8-2.8-29.2 6.4-34 33.4-17.2 34.3 16.3 27.9 27.5z" />
				<path id="prefix__Path_Copy_5_" class="prefix__st2"
					d="M1208 928.4c-6.3 11.2-26.3 13.8-34.3 6.5-8.7-8-2.8-29.2 6.5-34 33.2-17.3 34.1 16.2 27.8 27.5z" />
				<path id="prefix__Path_24_" class="prefix__st0"
					d="M813.4 517s-97.1 27.1-83.4 47c13.4 19.4 108.3-27.7 113.4-44.7 4.5-15.3-30-2.3-30-2.3z" />
			</g>
			<path id="prefix__Path_4_" class="prefix__st1"
				d="M753.8 857.2c29.1-58.2-10.4-157.3-67.1-123.9-57.9 34-.8 75.3 17.4 106.9 7.1 12.3-4.5 40.1 7.9 46.4 24.2 12.2 35.7-10.1 41.8-29.4z" />
			<path id="prefix__Path_16"
				d="M169.4 1433.4c-11 .5-42 .4-39-12.1 1.5-6.5-12.8-2.5-12.8-13.2 0-7.1 33.8-6.2 49.6-5.7H1614c12.2 0 27.1-.4 38.9 1.2 5.1.7 20.4 4.1 9.5 13.2-10.4 8.8-.5 15.9-9.8 15.7-5.9-.1-37.9.8-42.1.8H169.4z"
				fill-rule="evenodd" clip-rule="evenodd" fill="url(#blue_to_red)" />
			<path id="prefix__line"
				d="M286.8 1023.7c6.4-69.2-19.7-221.1 46.8-228 97.5-10.1 3.5 109.8 116.8 104.9 100.7-4.3-17.1-689.3 77.3-699.3 116.7-12.3 17.5 134.3 121.6 123.3 62.8-6.6 13.4-97.8 74.2-97.8 64.1 0 34.2 63.2 55.1 68.6 28.5 7.4 85.7 5.1 109.4 4.8 103-1.4 200-8.9 303.4-4.7 53.9 2.2 298.9-18.3 307.6 17.5 23.7 97.9-137.5 25.5-128.8 106.2 7.4 68.3 108.8 12.3 114.7 52.9 7.2 49.6 2.8 291.6 2.9 349.1"
				fill="none" stroke="url(#blue_to_red)" stroke-width="8" stroke-linecap="round" stroke-miterlimit="10"
				stroke-dasharray="14 22 14 22 14 22" />
			<g id="prefix__Group">
				<path id="prefix__Path_5_" class="prefix__st1"
					d="M1592.4 570.4c-6.8-14.1 3-32.6-6.4-39.9-10-7.7-24 3.1-27.8 12.6-12.8 31.7 20.2 124.3 66.7 107.8 56.1-19.9-20.6-55.9-32.5-80.5z" />
				<path id="prefix__Path_6_" class="prefix__st1"
					d="M74.1 896.2c.7 17-15.7 28.5-6.1 35.1 8.6 5.9 23.3-6.9 27.4-13.1 12.9-19.6 11.6-82.1-25.8-67.6-29 11.1 3.6 24.1 4.5 45.6z" />
				<path id="prefix__Path_7_" class="prefix__st1"
					d="M273.9 243.4c-27.3 20.3-99.1 27.3-62 67.3 56.9 61.5 132.2-119.4 62-67.3z" />
			</g>
			<g id="prefix__Group_2_">
				<path id="prefix__Path_3"
					d="M1357.3 1329.6c-5.4-2.2-8-8.3-5.8-13.6 16.6-41 33.1-82 49.7-123 2.2-5.4 8.3-8 13.6-5.8 27.8 11.2 55.5 22.4 83.3 33.6 2.6 1 4.6 3.1 5.7 5.6 1.1 2.6 1.1 5.4.1 8-16.6 41-33.1 82-49.7 123-2.2 5.4-8.3 8-13.6 5.8-27.8-11.2-55.6-22.4-83.3-33.6z"
					fill="#ffc43d" fill-opacity=".402" />
				<path id="prefix__Path_7" class="prefix__st6"
					d="M1415.4 1215c20.5 8.1 41 16.2 61.6 24.3m-61.6-24.3c20.5 8.1 41 16.2 61.6 24.3m-62.8-21.3c20.5 8.1 41 16.2 61.6 24.3.8-2 1.6-4.1 2.4-6.1-20.5-8.1-41-16.2-61.6-24.3-.8 2.1-1.6 4.1-2.4 6.1z" />
				<path id="prefix__Path_11" class="prefix__st6"
					d="M1406.8 1236.2c19.7 7.8 39.4 15.7 59.1 23.5m-59.1-23.5c19.7 7.8 39.4 15.7 59.1 23.5m-60.4-20.4c19.7 7.8 39.4 15.7 59.1 23.5.8-2 1.6-4.1 2.4-6.1l-59.1-23.5c-.7 2-1.5 4.1-2.4 6.1z" />
				<g id="prefix__Group_1_">
					<path id="prefix__Path_15" class="prefix__st6"
						d="M1399.8 1256.4c12.2 4.8 24.3 9.6 36.5 14.3m-36.5-14.3c12.2 4.8 24.3 9.6 36.5 14.3m-37.7-11.3c12.2 4.8 24.3 9.6 36.5 14.3.8-2 1.6-4.1 2.4-6.1-12.2-4.8-24.3-9.6-36.5-14.3-.8 2.1-1.6 4.1-2.4 6.1z" />
				</g>
				<path id="prefix__Path_16_1_" class="prefix__st7"
					d="M1390.5 1298.8c6.1 0 11.1 5 11.1 11.1s-5 11.1-11.1 11.1-11.1-5-11.1-11.1 5-11.1 11.1-11.1z" />
			</g>
			<g id="prefix__Group_3_">
				<path id="prefix__Path_17"
					d="M1349.1 631c23.5 8.2 47 16.3 70.5 24.5 13.5-38.9-7.1-81.5-46-95-16.7-5.8-34.1-5.3-49.6.2 8.4 23.5 16.8 46.9 25.1 70.3zm-1.1 4c-7.7 23.7-15.3 47.4-23 71.1 38.8 12.5 80.4-8.4 93.6-46.8-23.5-8.1-47.1-16.2-70.6-24.3z"
					fill-rule="evenodd" clip-rule="evenodd" fill="#ffc43d" fill-opacity=".516" />
				<path id="prefix__Path_18"
					d="M1345.4 633.8l-24.6-70.8c-39.2 13.6-59.9 56.3-46.3 95.5 1.1 3.1 2.3 6.1 3.8 8.9 1.5-.8 2.9-1.5 4.4-2.3 3.6-1.9 7.2-3.7 10.8-5.6l12.9-6.9c4.4-2.2 8.7-4.5 13.1-6.7 4.4-2 8.7-4 13.1-6.1 3-1.5 6-3 9-4.4 1.1-.5 2.3-1.1 3.4-1.6.2.1.3 0 .4 0z"
					fill="#ffc43d" fill-opacity=".516" />
				<path id="prefix__Path_19" class="prefix__st6"
					d="M1339.4 643.5s0 .1.1.1c-7.9 23.7-15.8 47.5-23.8 71.2-18.4-6.2-34.3-19.4-43.4-37.7 1.5-.8 2.9-1.5 4.4-2.3 3.6-1.9 7.2-3.7 10.8-5.6l12.9-6.9c4.4-2.2 8.7-4.5 13.1-6.7 4.4-2 8.7-4.1 13.1-6.1 3-1.5 6-2.9 9-4.4 1.1-.6 2.3-1.1 3.4-1.6.2.1.3 0 .4 0z" />
			</g>
			<g id="prefix__Group_5_">
				<g id="prefix__Group_4_">
					<path id="prefix__Path_20"
						d="M164.8 710.9c-7 5.9-11.5 14.7-11.9 24.6-.5 14.5 8.1 27.2 20.7 32.5-2.7 10.6-5.5 21.2-8.2 31.9-.8-.1-1.5-.2-2.3-.3-8.9-.3-16.3 6.6-16.6 15.5-.3 8.9 6.6 16.3 15.5 16.6 8.9.3 16.3-6.6 16.6-15.4.2-6.1-3-11.8-8.4-14.7 2.7-10.6 5.5-21.3 8.2-31.9 2.3.6 4.7.9 7.2 1.1 16 .6 29.8-10 33.9-24.7 9.9 2 19.8 4 29.7 5.9-.3 8.9 6.6 16.3 15.5 16.6 8.9.3 16.3-6.6 16.6-15.5.3-8.9-6.6-16.3-15.5-16.6-7.1-.3-13.4 4.2-15.7 10.5-9.9-2-19.8-3.9-29.7-5.9.1-1 .2-2 .3-3.1.7-18.7-13.9-34.5-32.7-35.2-6.8-.3-13.5 1.5-19.2 5.1-6.3-8.4-12.7-16.7-19-25.1 3.3-2.9 5.3-7 5.4-11.5.3-8.9-6.6-16.3-15.5-16.7-8.9-.3-16.3 6.6-16.6 15.5-.3 8.9 6.6 16.3 15.5 16.7 2.5.1 4.8-.4 7-1.3 6.4 8.5 12.8 17 19.2 25.4z"
						fill-rule="evenodd" clip-rule="evenodd" fill="#ffc43d" fill-opacity=".604" />
					<path id="prefix__Path_21" class="prefix__st7"
						d="M187.6 702c19.5 0 35.3 15.8 35.3 35.3 0 19.5-15.8 35.2-35.3 35.2s-35.3-15.8-35.3-35.2c0-19.5 15.8-35.3 35.3-35.3z" />
				</g>
			</g>
			<g id="prefix__Group_6_">
				<path id="prefix__Path_22"
					d="M498.9 1270.8h2.5c1.5 0 3-.6 4.1-1.7 1.1-1.1 1.7-2.5 1.7-4.1v-2.4c0-3.2-2.6-5.8-5.7-5.8l-40.8-.3c-3.2 0-5.8 2.6-5.8 5.8v2.4c0 1.5.6 3 1.7 4.1 1.1 1.1 2.5 1.7 4.1 1.7h3.2c-.1 11.1-.2 22.1-.2 33.2-1 1.7-33.7 69.3-46.1 91.8-1.8 3.3-.1 5.8 4.1 5.8 39.2.3 78.5.6 117.7.8 4.2 0 5.9-2.5 4.2-5.8-12.1-22.7-43.8-90.7-44.8-92.4-.1-11 0-22.1.1-33.1z"
					fill-rule="evenodd" clip-rule="evenodd" fill="#ffc43d" fill-opacity=".484" />
				<path id="prefix__Path_23" class="prefix__st6"
					d="M456.8 1331.5c-8.7 17.3-17.4 34.6-26.1 52-2.7 5.4 1.1 11.8 7 11.8l84.2.6c6.1 0 10.2-6.4 7.6-12-7.7-16.8-16-33.3-23.2-50.4-2.2-5.2-4.5-10.2-4.5-10.2s-2.9 10.2-11.3 12.1c-11.3 2.6-12-11.5-20.4-11.9-6.1-.4-13.3 8-13.3 8z" />
			</g>
			<g id="prefix__Group_7_">
				<path id="prefix__Path_1" class="prefix__st6"
					d="M842.1 95.1c-3.9 0-7.7.4-11 .9-9.7 1.7-11.5 5.3-11.5 11.9v8.8h23v2.9H811c-6.7 0-12.5 4-14.3 11.6-2.1 8.7-2.2 14.2 0 23.3 1.6 6.8 5.5 11.6 12.2 11.6h7.9v-10.5c0-7.6 6.6-14.3 14.3-14.3H854c6.4 0 11.5-5.3 11.5-11.7v-21.9c0-6.2-5.2-10.9-11.5-11.9-3.9-.4-7.9-.7-11.9-.7zm-12.4 7c2.4 0 4.3 2 4.3 4.4 0 2.4-1.9 4.4-4.3 4.4s-4.3-1.9-4.3-4.4c0-2.4 1.9-4.4 4.3-4.4z" />
				<path id="prefix__Path_2"
					d="M867.6 119.7v10.2c0 7.9-6.7 14.6-14.3 14.6h-22.9c-6.3 0-11.5 5.4-11.5 11.7v21.9c0 6.2 5.4 9.9 11.5 11.7 7.3 2.1 14.2 2.5 22.9 0 5.8-1.7 11.5-5 11.5-11.7v-8.8h-22.9v-2.9h34.4c6.7 0 9.2-4.7 11.5-11.6 2.4-7.2 2.3-14.1 0-23.3-1.6-6.6-4.8-11.6-11.5-11.6-3-.2-5.8-.2-8.7-.2zM854.7 175c2.4 0 4.3 2 4.3 4.4 0 2.4-1.9 4.4-4.3 4.4s-4.3-2-4.3-4.4c0-2.4 1.9-4.4 4.3-4.4z"
					fill="#ffc43d" fill-opacity=".598" />
			</g>
			<g id="prefix__Layer_2_1_">
				<g id="prefix__Group_8_">
					<path id="prefix__Path_12_" class="prefix__st13"
						d="M987.5 827.5c4.8-13.2 27.6-14.2 27.6 5.2 0 14.9-11.8 26.3-30.9 30.4 1.7-10.9 5.1-24.9 3.3-35.6z" />
					<path id="prefix__Path_Copy" class="prefix__st13"
						d="M827.7 827.5c-4.8-13.2-27.6-14.2-27.6 5.2 0 14.9 11.8 26.3 30.9 30.4-1.7-10.9-5-24.9-3.3-35.6z" />
				</g>
				<path id="prefix__Path_8_"
					d="M908.1 705.6c53.6 0 106.4 38.9 97 99.7-8.4 54.4-43.3 107.3-96.8 107.3s-90.4-52.6-97.1-107.3c-8.1-64.6 43.3-99.7 96.9-99.7z"
					fill-rule="evenodd" clip-rule="evenodd" fill="#141a2d" />
				<path id="prefix__Smart_Rectangle" class="prefix__st6"
					d="M1028.8 1387.5l-246.5 4.6c-88.1 0-160.4-134.8-160.4-205.7 0-50 47.3-152.6 76.2-176.7 24.3-20.2 81-29 110.9-29h191.9c48.6 0 95 8.9 122.3 35.8 22.1 21.8 58.8 124.7 58.8 169.9 0 65-65.2 201.1-153.2 201.1z" />
				<path id="prefix__Path_9_"
					d="M849.4 903.8s120-1.6 118.9 1.5c-20.3 59.2 14.1 72.6 14.1 72.6s-17.5 56.2-72.9 56c-53.6-.2-73.7-56-73.7-56s32-16.1 13.6-74.1z"
					fill-rule="evenodd" clip-rule="evenodd" fill="#ffc480" />
				<path id="prefix__Path_10_"
					d="M825.8 984c17.2 34.7 51.5 51.3 84.8 50.9 33.3-.3 66.8-17.6 82.8-51 1.8-3.7.1-8.4-3.5-10-3.5-1.8-8.3-.2-10 3.5-13.2 27.5-40.9 42.1-69.4 42.4-28.5.2-56.7-13.6-71.2-42.6-1.8-3.7-6.6-5.2-10.1-3.4-3.7 1.8-5.3 6.6-3.4 10.2z"
					fill="#d29406" />
				<defs>
					<path id="prefix__SVGID_1_"
						d="M849.4 903.8s120-1.6 118.9 1.5c-20.3 59.2 14.1 72.6 14.1 72.6s-17.5 56.2-72.9 56c-53.6-.2-73.7-56-73.7-56s32-16.1 13.6-74.1z" />
				</defs>
				<defs>
					<path id="prefix__SVGID_2_"
						d="M849.4 903.8s120-1.6 118.9 1.5c-20.3 59.2 14.1 72.6 14.1 72.6s-17.5 56.2-72.9 56c-53.6-.2-73.7-56-73.7-56s32-16.1 13.6-74.1z" />
				</defs>
				<clipPath id="prefix__SVGID_3_">
					<use xlink:href="#prefix__SVGID_1_" overflow="visible" />
				</clipPath>
				<clipPath id="prefix__SVGID_4_" clip-path="url(#prefix__SVGID_3_)">
					<use xlink:href="#prefix__SVGID_2_" overflow="visible" />
				</clipPath>
				<g id="prefix__Clipping_Group" clip-path="url(#prefix__SVGID_4_)">
					<path id="prefix__Path_11_"
						d="M966.9 922c-59.1 93-129.8 35.7-131.1 27.8-.9-5.4 5.8-54.9 6.9-55.6 2-1.2 29.3 6.6 34.4 7.1 31.4 3 63.3 7.8 94 .7 0 0-3.4 18.7-4.2 20z"
						fill-opacity=".051" />
				</g>
				<defs>
					<path id="prefix__SVGID_5_"
						d="M849.4 903.8s120-1.6 118.9 1.5c-20.3 59.2 14.1 72.6 14.1 72.6s-17.5 56.2-72.9 56c-53.6-.2-73.7-56-73.7-56s32-16.1 13.6-74.1z" />
				</defs>
				<defs>
					<path id="prefix__SVGID_6_"
						d="M849.4 903.8s120-1.6 118.9 1.5c-20.3 59.2 14.1 72.6 14.1 72.6s-17.5 56.2-72.9 56c-53.6-.2-73.7-56-73.7-56s32-16.1 13.6-74.1z" />
				</defs>
				<clipPath id="prefix__SVGID_7_">
					<use xlink:href="#prefix__SVGID_5_" overflow="visible" />
				</clipPath>
				<clipPath id="prefix__SVGID_8_" clip-path="url(#prefix__SVGID_7_)">
					<use xlink:href="#prefix__SVGID_6_" overflow="visible" />
				</clipPath>
				<path id="prefix__Path_13_"
					d="M908.5 705.7c48.9 0 88.6 52.2 88.6 116.6s-39.7 116.6-88.6 116.6c-49 0-88.6-52.2-88.6-116.6s39.6-116.6 88.6-116.6z"
					fill-rule="evenodd" clip-rule="evenodd" fill="#fdcf97" />
				<g>
					<defs>
						<path id="prefix__SVGID_9_"
							d="M908.5 705.7c48.9 0 88.6 52.2 88.6 116.6s-39.7 116.6-88.6 116.6c-49 0-88.6-52.2-88.6-116.6s39.6-116.6 88.6-116.6z" />
					</defs>
					<defs>
						<path id="prefix__SVGID_10_"
							d="M908.5 705.7c48.9 0 88.6 52.2 88.6 116.6s-39.7 116.6-88.6 116.6c-49 0-88.6-52.2-88.6-116.6s39.6-116.6 88.6-116.6z" />
					</defs>
					<clipPath id="prefix__SVGID_11_">
						<use xlink:href="#prefix__SVGID_9_" overflow="visible" />
					</clipPath>
					<clipPath id="prefix__SVGID_12_" clip-path="url(#prefix__SVGID_11_)">
						<use xlink:href="#prefix__SVGID_10_" overflow="visible" />
					</clipPath>
					<g id="prefix__Clipping_Group_1_" clip-path="url(#prefix__SVGID_12_)">
						<path id="prefix__Path_14_"
							d="M999.8 785.2c-13.8 19.3-49.4 15-66.9 2.5-12.5-8.9-21.4-22-37.8-24.3-17.2-2.4-24 16.6-49.1 16.6 8.5-19.4 27.5-39.5 50.9-36.3 13.9 1.9 25.4 9.9 39.4 11.7 16.7 2.2 30.5-2.4 43.9-.6 15.8 1.9 26.1 16.4 19.6 30.4z"
							fill-opacity=".104" />
					</g>
				</g>
				<g>
					<defs>
						<path id="prefix__SVGID_13_"
							d="M908.5 705.7c48.9 0 88.6 52.2 88.6 116.6s-39.7 116.6-88.6 116.6c-49 0-88.6-52.2-88.6-116.6s39.6-116.6 88.6-116.6z" />
					</defs>
					<defs>
						<path id="prefix__SVGID_14_"
							d="M908.5 705.7c48.9 0 88.6 52.2 88.6 116.6s-39.7 116.6-88.6 116.6c-49 0-88.6-52.2-88.6-116.6s39.6-116.6 88.6-116.6z" />
					</defs>
					<clipPath id="prefix__SVGID_15_">
						<use xlink:href="#prefix__SVGID_13_" overflow="visible" />
					</clipPath>
					<clipPath id="prefix__SVGID_16_" clip-path="url(#prefix__SVGID_15_)">
						<use xlink:href="#prefix__SVGID_14_" overflow="visible" />
					</clipPath>
				</g>
				<path id="prefix__Path_15_" class="prefix__st28"
					d="M908.2 761c-9.3-4.1-22.5-7.1-31.9-2.1-12.1 6.4-15.2 24.8-26.7 33.7-24.8 18.9-54.3-11.1-54.5-37.2-.3-46.2 43-39.5 65.6-54.7 35.6-24.1 16.6-54.2 77-64 17.8-2.9 36.6-1.3 55 9.9 41.9 25.3 53.2 95.2 1.7 122.3-26.7 13.9-60.8 3.1-86.2-7.9z" />
				<g>
					<defs>
						<path id="prefix__SVGID_17_"
							d="M908.2 761c-9.3-4.1-22.5-7.1-31.9-2.1-12.1 6.4-15.2 24.8-26.7 33.7-24.8 18.9-54.3-11.1-54.5-37.2-.3-46.2 43-39.5 65.6-54.7 35.6-24.1 16.6-54.2 77-64 17.8-2.9 36.6-1.3 55 9.9 41.9 25.3 53.2 95.2 1.7 122.3-26.7 13.9-60.8 3.1-86.2-7.9z" />
					</defs>
					<defs>
						<path id="prefix__SVGID_18_"
							d="M908.2 761c-9.3-4.1-22.5-7.1-31.9-2.1-12.1 6.4-15.2 24.8-26.7 33.7-24.8 18.9-54.3-11.1-54.5-37.2-.3-46.2 43-39.5 65.6-54.7 35.6-24.1 16.6-54.2 77-64 17.8-2.9 36.6-1.3 55 9.9 41.9 25.3 53.2 95.2 1.7 122.3-26.7 13.9-60.8 3.1-86.2-7.9z" />
					</defs>
					<clipPath id="prefix__SVGID_19_">
						<use xlink:href="#prefix__SVGID_17_" overflow="visible" />
					</clipPath>
					<clipPath id="prefix__SVGID_20_" clip-path="url(#prefix__SVGID_19_)">
						<use xlink:href="#prefix__SVGID_18_" overflow="visible" />
					</clipPath>
					<g id="prefix__Clipping_Group_2_" clip-path="url(#prefix__SVGID_20_)">
						<path id="prefix__Path_16_" class="prefix__st31"
							d="M1018.9 760.1c2.7-12.3 6.8-27.1 5.7-39.8-4-47.4-38.9-71.3-89.8-67.2-31.3 2.5-54.4 32.7-72 42.3-.8-8.9 9-25.1 13.2-32.2 24.4-41.9 86.7-55.1 129.3-33 29.2 15.1 39.5 60.9 31.2 90.2-3.4 11.3-13.5 28.7-17.6 39.7" />
						<path id="prefix__Path_17_" class="prefix__st31"
							d="M852.2 701.7c-11.6 2.9-25.5 11.6-35 25.6-17.2 25.4-8 41.3-.2 71.2-18.1-13.3-34-26.2-34.8-50.9-1-32.8 41.8-55.3 70-45.9z" />
					</g>
				</g>
				<g>
					<defs>
						<path id="prefix__SVGID_21_"
							d="M908.2 761c-9.3-4.1-22.5-7.1-31.9-2.1-12.1 6.4-15.2 24.8-26.7 33.7-24.8 18.9-54.3-11.1-54.5-37.2-.3-46.2 43-39.5 65.6-54.7 35.6-24.1 16.6-54.2 77-64 17.8-2.9 36.6-1.3 55 9.9 41.9 25.3 53.2 95.2 1.7 122.3-26.7 13.9-60.8 3.1-86.2-7.9z" />
					</defs>
					<defs>
						<path id="prefix__SVGID_22_"
							d="M908.2 761c-9.3-4.1-22.5-7.1-31.9-2.1-12.1 6.4-15.2 24.8-26.7 33.7-24.8 18.9-54.3-11.1-54.5-37.2-.3-46.2 43-39.5 65.6-54.7 35.6-24.1 16.6-54.2 77-64 17.8-2.9 36.6-1.3 55 9.9 41.9 25.3 53.2 95.2 1.7 122.3-26.7 13.9-60.8 3.1-86.2-7.9z" />
					</defs>
					<clipPath id="prefix__SVGID_23_">
						<use xlink:href="#prefix__SVGID_21_" overflow="visible" />
					</clipPath>
					<clipPath id="prefix__SVGID_24_" clip-path="url(#prefix__SVGID_23_)">
						<use xlink:href="#prefix__SVGID_22_" overflow="visible" />
					</clipPath>
				</g>
				<g id="prefix__Group_Copy">
					<path id="prefix__Path_67" class="prefix__st28"
						d="M1064.1 1396c-.4 3.8-3.4 6.8-6.8 6.8H750.4c-3.4 0-6.5-3.1-6.8-6.8-8.8-89-17.6-178-26.3-267.1-.4-3.8 2.6-6.8 6.6-6.8H1084c4 0 6.9 3.1 6.5 6.8-8.9 89.1-17.6 178.1-26.4 267.1z" />
					<path id="prefix__Path_68"
						d="M1074.9 1394.8c0 4.4-3.6 8-8 8H740.7c-4.4 0-8-3.6-8-8v-3.2c0-4.4 3.6-8 8-8h326.2c4.4 0 8 3.6 8 8v3.2z"
						fill="#0e1d42" />
					<path id="prefix__Path_69"
						d="M905.9 1216.5c5.1 3.6 10 7.2 14.8 10.8-16.6 13.3-33.2 26.5-49.8 39.8l2.7 24.9c15.7-15.1 33.2-30.2 52.8-45.3-.3 3.3-.6 6.7-.8 10-16 14.2-32.1 28.5-48.1 42.8 8.2 7.8 16.3 15.6 24.5 23.4 0-7.3.1-14.6.1-21.9 8.8-8.2 18.1-16.4 28.1-24.5.3-2.5.5-5 .8-7.4-12.3 9.9-23.8 19.8-34.5 29.7.1 3.8.1 7.7.2 11.5-3.8-3.6-7.8-7.2-11.8-10.8 15.7-13.5 31.5-27 47.2-40.5l2.7-24.9-6.3 4.5c-6.1 4.6-12.1 9.2-18.2 13.8-11.3 9-21.8 18.1-31.7 27.1-.3-3.3-.6-6.7-.8-10 17.7-14 35.4-28 53-42-10.6-7.8-21.3-15.6-31.9-23.4 0 7.3.1 14.6.2 21.9-9.9 7.9-19.8 15.9-29.8 23.8.3 2.5.5 5 .8 7.4 11.2-9.7 23.1-19.3 35.8-29-.1-4-.1-7.8 0-11.7z"
						fill-rule="evenodd" clip-rule="evenodd" fill="#fff" fill-opacity=".5" />
				</g>
			</g>
			<g id="prefix__Group_11_">
				<path id="prefix__Path_18_" class="prefix__st36"
					d="M153.4 1015.6c46.7-48.2 216.2-50 262.5-3.8 43.3 43.3 48.6 205.5 0 244.8-50.9 41.1-219.4 51.4-261.8 0-38.9-47.2-43.3-196.9-.7-241z" />
				<g id="prefix__Group_10_">
					<path id="prefix__Path_71" class="prefix__st28"
						d="M166.8 1206.4c20.4 18.9 40.8 37.9 61.2 56.8.4-.4.8-.9 1.2-1.3-20.4-18.9-40.8-37.9-61.2-56.8-.4.4-.8.9-1.2 1.3zm14.5-13.5l58.5 55.2c.4-.4.8-.8 1.2-1.3l-58.5-55.2c-.4.5-.8.9-1.2 1.3zm21.5-8.3c14 12.9 28 25.8 42.1 38.6.4-.4.8-.9 1.2-1.3-14-12.9-28-25.8-42.1-38.6-.4.5-.8.9-1.2 1.3zm34.2-31.9c12.6 11.2 25.2 22.5 37.8 33.7.4-.4.8-.9 1.2-1.3-12.6-11.2-25.2-22.5-37.8-33.7-.4.4-.8.9-1.2 1.3zm0-28.4c22.6 19.7 45.2 39.5 67.8 59.2.4-.5.8-.9 1.2-1.3-22.6-19.7-45.2-39.5-67.8-59.2-.4.4-.8.9-1.2 1.3zm7.9-21.8c26.1 22.4 52.2 44.7 78.3 67.1.4-.4.8-.9 1.1-1.3-26.1-22.4-52.2-44.7-78.3-67.1-.3.4-.7.8-1.1 1.3zm19.6-11.9c23 19.4 45.9 38.8 68.9 58.3.4-.5.8-.9 1.1-1.3-23-19.4-45.9-38.9-68.9-58.3-.3.4-.7.8-1.1 1.3zm26-5.9c14.3 11.7 28.6 23.3 42.9 35 .4-.5.7-.9 1.1-1.4-14.3-11.7-28.6-23.3-42.9-35-.4.5-.7 1-1.1 1.4zm34.1-35.7l42.9 38.1c.4-.4.8-.9 1.2-1.3l-42.9-38.1c-.5.4-.9.9-1.2 1.3zm19.2-39.8c20.8 18.5 41.6 37.1 62.4 55.6.4-.4.8-.9 1.2-1.3-20.8-18.6-41.6-37.1-62.4-55.6-.4.4-.8.8-1.2 1.3zm-12.3 16.4c19.6 17.7 39.1 35.4 58.7 53 .4-.4.8-.9 1.2-1.3-19.6-17.7-39.1-35.4-58.7-53-.4.4-.8.9-1.2 1.3z" />
					<path id="prefix__Path_72" class="prefix__st6"
						d="M229.2 1266.7c27.5-24.9 22.7-57.5 16.7-86.8-3.1-14.8-6.5-29.1-6.9-41.8-.4-12.8 2-23.5 10.3-32.4 10.1-10.9 21.8-15.1 35.2-16.5 13.3-1.3 28.1.6 43.1 2.1 15 1.6 30.4 2.8 45-.3 14.6-3.1 28.6-10.8 39.7-26.4 1.3-1.8.8-4.4-.9-5.6-1.7-1.3-4.3-.9-5.6.9-10.1 14.1-21.8 20.4-34.9 23.2-13.1 2.8-27.6 1.7-42.5.2-14.9-1.5-30.1-3.6-44.7-2.2-14.6 1.4-28.7 6.5-40.3 19-10.1 10.8-12.9 24.3-12.4 38.1.5 13.9 4 28.5 7 43.2 6.1 29.5 9.7 57.6-14.2 79.2-1.6 1.5-1.7 4.1-.3 5.7 1.4 1.7 4.1 1.8 5.7.4z" />
					<path id="prefix__Path_73" class="prefix__st6"
						d="M231.4 1269.1c29-26.3 23.7-60.7 17.7-89.9-3.1-14.8-6.4-29.1-6.8-41.2-.3-12.3 1.9-21.9 9.4-30 9.5-10.2 20.2-14.1 33.1-15.4 12.8-1.3 27.4.6 42.5 2.1 15.1 1.5 30.8 2.9 46.1-.3 15.3-3.2 30.2-11.4 41.7-27.7 2.4-3.4 1.6-7.9-1.7-10.3l.1.1c-3.4-2.4-7.8-1.7-10.3 1.6-9.8 13.4-20.4 19.2-32.9 21.9-12.4 2.7-26.7 1.7-41.5.1-14.8-1.5-30.3-3.6-45.4-2.1-15.1 1.4-30.2 6.8-42.4 20-10.9 11.7-13.8 26.2-13.3 40.5.5 14.4 4.1 29.2 7.1 43.7 6.1 29.6 9.2 55.8-13.2 76.1-3 2.8-3.3 7.3-.5 10.4l-.1-.1c2.8 3 7.3 3.2 10.4.5zm-4.5-4.9c-.1.2-.9.1-.9 0s0-.1.1-.2c-.1 0-.1 0-.2.1-.1 0-.1-.8.1-.9 25.4-23 21.3-52.9 15.2-82.4-3-14.7-6.5-29.2-7-42.6-.5-13.3 2.2-25.7 11.5-35.8 10.9-11.8 24.1-16.6 38.1-17.9 14.1-1.4 29.1.6 44.1 2.1 15 1.6 29.8 2.7 43.6-.2 13.7-2.9 26.3-9.8 36.9-24.6 0-.2.9-.3.9-.2v.2c.1 0 .1-.1.2-.1.1-.1.3.8.1.9-10.7 15-23.7 22.1-37.7 25.1-14 3-29 1.8-44 .2s-29.9-3.5-43.8-2.1c-13.8 1.3-26.6 6-37.3 17.5-9 9.7-11.6 21.6-11.1 34.8.4 13.2 3.9 27.6 6.9 42.4 6.1 29.4 10.4 60.1-15.7 83.7z" />
					<g id="prefix__Group_9_">
						<path id="prefix__Path_74" class="prefix__st28"
							d="M167.7 1210.4c19.2-26 47.2-25 77.1-21.7 14.8 1.6 29.7 3.8 43.5 3 13.8-.8 26.8-4.9 36.6-16 22.7-25.9 14.3-57.3 8.5-86.7-3-14.8-5.5-29.3-4-42.7 1.5-13.4 6.7-25.7 19.7-37.2 1.7-1.4 1.8-4.1.4-5.7-1.4-1.6-4-1.8-5.7-.3-14.4 12.7-20.7 27.3-22.3 42.3-1.6 15 1.1 30.2 4.1 45.1 6.1 30 12.8 58-6.6 79.8-8.1 9.1-18.4 12.5-31.1 13.3-12.6.8-27.1-1.3-42.1-2.9-29.6-3.3-62.4-5-84.4 24.9-1.3 1.7-.9 4.4.8 5.6 1.6 1.3 4.2 1 5.5-.8z" />
						<path id="prefix__Path_75" class="prefix__st28"
							d="M170.4 1212.4c18-24.3 44.1-23.6 74.1-20.4 14.7 1.6 29.7 3.8 44 3 14.2-.8 28.4-5.2 38.9-17.2 24-27.6 14.9-60.5 9.2-89.5-3-14.7-5.4-28.9-3.9-41.6 1.5-12.8 6.2-24 18.6-35.1 3.1-2.8 3.4-7.3.6-10.4l.1.1c-2.8-3.1-7.2-3.4-10.4-.7-15 13.2-21.8 28.8-23.5 44.5-1.7 15.6 1.1 31.2 4.1 46.2 6.3 30.3 12.2 56.8-5.9 77-7.4 8.3-16.6 11.4-28.8 12.2-12.1.8-26.5-1.2-41.5-2.9-29.6-3.3-64.3-5.3-87.4 26.2-2.4 3.4-1.7 7.8 1.6 10.3-.1 0-.1-.1-.1-.1 3.3 2.3 7.8 1.7 10.3-1.6zm-5.4-4c0 .2-.9.3-.9.2v-.2c-.1 0-.1.1-.2.1-.1.1-.3-.8-.1-.9 20.8-28.3 51.7-26.9 81.4-23.6 14.9 1.7 29.5 3.8 42.7 3 13.1-.8 24.6-4.5 33.4-14.5 20.8-23.6 13.4-52.9 7.4-82.7-3-14.9-5.6-29.8-4-44.1 1.6-14.3 7.4-28 21.3-40.2.1-.2.9-.1.9 0s0 .1-.1.2c.1 0 .1 0 .2-.1.1 0 .1.8-.1.9-13.5 12-19.2 25.3-20.8 39.3-1.6 14 1 28.8 4 43.7 6 29.7 13.7 59.6-7.7 83.9-9 10.3-21 14.1-34.3 14.9-13.3.8-28-1.3-42.9-3-29.8-3.2-59.8-4.5-80.2 23.1z" />
					</g>
				</g>
			</g>
			<g id="prefix__Group_15_">
				<path id="prefix__Path_Copy_1_" class="prefix__st36"
					d="M364.4 456.1c47.6-47.5 220.5-49.3 267.6-3.7 44.1 42.6 49.6 202.3 0 241-51.9 40.5-223.8 50.6-266.9 0-39.6-46.6-44.1-194-.7-237.3z" />
				<g id="prefix__Group_14_">
					<path id="prefix__Path_77" class="prefix__st28"
						d="M409.1 567.8c-7.8 0-14.5 2.4-19.5 6.5-7.3 5.9-10.9 14.9-10.6 23.8.3 18.1 17.9 36 48.3 32.4 3.1-.3 5.4-3.2 5-6.2-.2-3-3.1-5.4-6.2-5.1-26.1 2.3-35.1-10.4-35.9-21.6-.2-5.7 2.1-11.1 6.4-14.6 4.3-3.4 10.9-5.4 21.1-3 4.9 1.1 8.8-4.7 5.9-8.8-9-12.7-6-26.8 2.4-35.3 8.7-8.1 21.4-11 36.3 1.5 3.9 3.2 9.9 0 9.3-4.9-1.7-15.3 2.5-25.3 9.3-31.9 6.8-6.6 16.8-9.7 27-9.3 10.1.4 20.1 4.5 26.8 11.6 6.6 7.1 10.4 17 8.1 31.2-.6 3.8 3 7.2 6.8 6.4 40-8.3 59.9 12.9 63.3 35.5 1.5 11.3-1.5 22.8-9.2 31-7.7 8.2-20 13.8-38.9 12.4-3.1-.2-5.9 2.2-6 5.2-.3 3 2.2 5.9 5.2 6.1 21.4 1.6 37.8-5 48-16 10.2-11 14-25.9 12.1-40.2-3.3-27-28.7-52.3-69.4-46.4.5-13.6-4.2-24.9-11.8-32.9-9.1-9.5-21.8-14.5-34.5-15.1-12.7-.5-25.8 3.3-35.3 12.4-7.4 7-12.3 17.2-13.1 29.7-15.7-8.2-32.1-4.4-42 5.7-9.7 9.6-14.2 25.2-8.9 39.9.1 0 0 0 0 0z" />
					<g id="prefix__Group_12_">
						<path id="prefix__Path_78" class="prefix__st28"
							d="M555.8 592.8c0 10.3-8.3 18.7-18.6 18.7h-81.9c-10.3 0-18.6-8.4-18.6-18.7 0-10.3 8.3-18.6 18.6-18.6h81.9c10.2 0 18.6 8.3 18.6 18.6z" />
						<path id="prefix__server-1" class="prefix__st7"
							d="M535.5 584.7c3 0 5.7 1.5 7.2 4.1 1.5 2.5 1.5 5.7 0 8.3-1.5 2.5-4.2 4.1-7.2 4-4.5-.1-8.1-3.7-8.1-8.2.1-4.5 3.7-8.2 8.1-8.2z" />
						<path id="prefix__Path_80" class="prefix__st37"
							d="M450.6 595.5h56.9c1.4 0 2.6-1.2 2.6-2.6 0-1.4-1.2-2.6-2.6-2.6h-56.9c-1.4 0-2.6 1.2-2.6 2.6-.1 1.3 1.1 2.6 2.6 2.6z" />
					</g>
					<g id="prefix__Group_13_">
						<path id="prefix__Path_81" class="prefix__st28"
							d="M555.8 633c0 10.3-8.3 18.6-18.6 18.6h-81.9c-10.3 0-18.6-8.3-18.6-18.6s8.3-18.7 18.6-18.7h81.9c10.2 0 18.6 8.4 18.6 18.7z" />
						<path id="prefix__server-2" class="prefix__st7"
							d="M535.5 624.8c2.2 0 4.3.9 5.8 2.4s2.4 3.6 2.4 5.8c0 2.2-.9 4.2-2.4 5.8-1.5 1.5-3.6 2.4-5.8 2.4-2.2 0-4.3-.9-5.8-2.4s-2.4-3.6-2.4-5.8c0-2.2.9-4.2 2.4-5.8 1.6-1.5 3.7-2.4 5.8-2.4z" />
						<path id="prefix__Path_83" class="prefix__st37"
							d="M450.6 635.6h56.9c1.4 0 2.6-1.2 2.6-2.6 0-1.4-1.2-2.6-2.6-2.6h-56.9c-1.4 0-2.6 1.2-2.6 2.6-.1 1.4 1.1 2.6 2.6 2.6z" />
					</g>
				</g>
			</g>
			<g id="prefix__Group_20_">
				<path id="prefix__Path_Copy_2_" class="prefix__st36"
					d="M985.8 180.5c49.7-48.2 230.2-50 279.4-3.8 46.1 43.2 51.8 205.3 0 244.5-54.2 41.1-233.6 51.3-278.7 0-41.3-47.1-46.1-196.6-.7-240.7z" />
				<path id="prefix__Path_86" class="prefix__st28"
					d="M1225.5 367.6H1027V225.7h198.5v141.9zm13 .5V225.2c0-3.3-1.3-6.5-3.7-8.9-2.4-2.4-5.6-3.7-8.9-3.7h-199.5c-7 0-12.6 5.6-12.6 12.6V368c0 3.3 1.3 6.5 3.7 8.9 2.4 2.4 5.6 3.7 8.9 3.7h199.5c3.3 0 6.5-1.3 8.9-3.7 2.4-2.3 3.7-5.5 3.7-8.8z" />
				<path id="prefix__Path_88" class="prefix__st28" d="M1122.4 374.1v24.8h7.6v-24.8h-7.6z" />
				<g id="prefix__Group_17_">
					<path id="prefix__Path_90" class="prefix__st28"
						d="M1084.7 402.7h82.9c2.1 0 3.8-1.8 3.8-3.8.1-2-1.7-3.8-3.8-3.8h-82.9c-2.1 0-3.8 1.8-3.8 3.8 0 2.1 1.8 3.9 3.8 3.8z" />
					<g id="prefix__Group_16_">
						<path id="prefix__Path_91" class="prefix__st28" d="M1084.7 401.6h82.9v-5.2h-82.9v5.2z" />
						<path id="prefix__Path_92" class="prefix__st28"
							d="M1084.7 405.4h82.9c3.6-.1 6.4-2.9 6.4-6.5v.1c0-3.6-2.8-6.4-6.4-6.5h-82.9c-3.6.1-6.4 2.9-6.4 6.5v-.1c0 3.6 2.8 6.4 6.4 6.5zm0-5.3c-.5.1-1.2-.7-1.1-1.1v-.1-.1c-.1-.4.6-1.2 1.2-1.1h82.9c.5-.1 1.2.7 1.1 1.1v.2c.1.4-.6 1.2-1.2 1.1h-82.9z" />
					</g>
				</g>
				<g id="prefix__Group_19_">
					<g id="prefix__Path_19_">
						<path class="prefix__st6"
							d="M1136.2 273.3L1118 320M1118 323c-.4 0-.7-.1-1.1-.2-1.5-.6-2.3-2.3-1.7-3.9l18.1-46.7c.6-1.5 2.3-2.3 3.9-1.7 1.5.6 2.3 2.3 1.7 3.9l-18.1 46.7c-.4 1.2-1.6 1.9-2.8 1.9z" />
					</g>
					<path class="prefix__st6"
						d="M1096.2 315c-.4 0-.9-.1-1.3-.3l-24.1-11.3c-1-.5-1.7-1.5-1.7-2.7 0-1.2.6-2.2 1.7-2.7l24.1-11.9c1.5-.7 3.3-.1 4 1.4s.1 3.3-1.4 4l-18.5 9.1 18.4 8.6c1.5.7 2.1 2.5 1.4 4-.4 1.1-1.4 1.8-2.6 1.8zM1159.4 315c-1.1 0-2.2-.6-2.7-1.7-.7-1.5-.1-3.3 1.4-4l18.4-8.6-18.5-9.1c-1.5-.7-2.1-2.5-1.4-4s2.5-2.1 4-1.4l24.1 11.9c1 .5 1.7 1.6 1.7 2.7 0 1.2-.7 2.2-1.7 2.7l-24.1 11.3c-.4.1-.8.2-1.2.2z" />
				</g>
			</g>
			<g id="prefix__Group_21_">
				<path id="prefix__Path_Copy_1" class="prefix__st36"
					d="M1354.4 810.7c46.7-48.2 216.2-50 262.5-3.8 43.3 43.3 48.7 205.5 0 244.8-50.9 41.1-219.4 51.4-261.8 0-38.9-47.2-43.4-196.9-.7-241z" />
				<path id="prefix__Path_104" class="prefix__st28"
					d="M1402.2 1018.3c0 4.8-3.9 8.7-8.7 8.7h-4.7c-4.8 0-8.7-3.9-8.7-8.7V905.8c0-4.8 3.9-8.7 8.7-8.7h4.7c4.8 0 8.7 3.9 8.7 8.7v112.5z" />
				<path id="prefix__Path_105" class="prefix__st6"
					d="M1450.5 1018.3c0 4.8-3.9 8.7-8.7 8.7h-4.7c-4.8 0-8.7-3.9-8.7-8.7v-91.8c0-4.8 3.9-8.7 8.7-8.7h4.7c4.8 0 8.7 3.9 8.7 8.7v91.8z" />
				<path id="prefix__Path_106" class="prefix__st28"
					d="M1498.7 1018.3c0 4.8-3.9 8.7-8.7 8.7h-4.7c-4.8 0-8.7-3.9-8.7-8.7v-147c0-4.8 3.9-8.7 8.7-8.7h4.7c4.8 0 8.7 3.9 8.7 8.7v147zm96.6 0c0 4.8-3.9 8.7-8.7 8.7h-4.7c-4.8 0-8.7-3.9-8.7-8.7v-74.5c0-4.8 3.9-8.7 8.7-8.7h4.7c4.8 0 8.7 3.9 8.7 8.7v74.5z" />
				<path id="prefix__Path_107" class="prefix__st6"
					d="M1547 1018.3c0 4.8-3.9 8.7-8.7 8.7h-4.7c-4.8 0-8.7-3.9-8.7-8.7V841.7c0-4.8 3.9-8.7 8.7-8.7h4.7c4.8 0 8.7 3.9 8.7 8.7v176.6z" />
			</g>
		</g>
	</g>
</svg>